Wavefont-wmax,rmin,amax.ufo
<glyph name="_5" format="2">
	<unicode hex="0105"/>
	<advance width="250"/>
	<outline>
		<component base="cap" yOffset="950"/>
		<component base="cap" yOffset="1000"/>
		<contour>
			<point x="0" y="950" type="line"/>
			<point x="0" y="1000" type="line"/>
			<point x="250" y="1000" type="line"/>
			<point x="250" y="950" type="line"/>
		</contour>
	</outline>
</glyph>
<glyph name="_9" format="2">
	<unicode hex="0109"/>
	<advance width="404"/>
	<outline>
		<component base="cap" yOffset="910"/>
		<component base="cap" yOffset="1000"/>
		<contour>
			<point x="0" y="910" type="line"/>
			<point x="0" y="1000" type="line"/>
			<point x="404" y="1000" type="line"/>
			<point x="404" y="910" type="line"/>
		</contour>
	</outline>
</glyph>
<glyph name="_10" format="2">
	<unicode hex="010A"/>
	<unicode hex="0031"/>
	<unicode hex="0066"/>
	<advance width="404"/>
	<outline>
		<component base="cap" yOffset="900"/>
		<component base="cap" yOffset="1000"/>
		<contour>
			<point x="0" y="900" type="line"/>
			<point x="0" y="1000" type="line"/>
			<point x="404" y="1000" type="line"/>
			<point x="404" y="900" type="line"/>
		</contour>
	</outline>
</glyph>
<glyph name="_12" format="2">
	<unicode hex="010C"/>
	<unicode hex="0067"/>
	<advance width="404"/>
	<outline>
		<component base="cap" yOffset="880"/>
		<component base="cap" yOffset="1000"/>
		<contour>
			<point x="0" y="880" type="line"/>
			<point x="0" y="1000" type="line"/>
			<point x="404" y="1000" type="line"/>
			<point x="404" y="880" type="line"/>
		</contour>
	</outline>
</glyph>
<glyph name="_21" format="2">
	<unicode hex="0115"/>
	<advance width="250"/>
	<outline>
		<component base="cap" yOffset="790"/>
		<component base="cap" yOffset="1000"/>
		<contour>
			<point x="0" y="790" type="line"/>
			<point x="0" y="1000" type="line"/>
			<point x="250" y="1000" type="line"/>
			<point x="250" y="790" type="line"/>
		</contour>
	</outline>
</glyph>
<glyph name="_26" format="2">
	<unicode hex="011A"/>
	<unicode hex="006E"/>
	<advance width="404"/>
	<outline>
		<component base="cap" yOffset="740"/>
		<component base="cap" yOffset="1000"/>
		<contour>
			<point x="0" y="740" type="line"/>
			<point x="0" y="1000" type="line"/>
			<point x="404" y="1000" type="line"/>
			<point x="404" y="740" type="line"/>
		</contour>
	</outline>
</glyph>
<glyph name="_27" format="2">
	<unicode hex="011B"/>
	<advance width="250"/>
	<outline>
		<component base="cap" yOffset="730"/>
		<component base="cap" yOffset="1000"/>
		<contour>
			<point x="0" y="730" type="line"/>
			<point x="0" y="1000" type="line"/>
			<point x="250" y="1000" type="line"/>
			<point x="250" y="730" type="line"/>
		</contour>
	</outline>
</glyph>
<glyph name="_28" format="2">
	<unicode hex="011C"/>
	<unicode hex="2583"/>
	<unicode hex="006F"/>
	<advance width="200"/>
	<outline>
		<component base="cap" yOffset="720"/>
		<component base="cap" yOffset="1000"/>
		<contour>
			<point x="0" y="720" type="line"/>
			<point x="0" y="1000" type="line"/>
			<point x="200" y="1000" type="line"/>
			<point x="200" y="720" type="line"/>
		</contour>
	</outline>
</glyph>
<glyph name="_50" format="2">
	<unicode hex="0132"/>
	<unicode hex="0035"/>
	<unicode hex="007A"/>
	<advance width="404"/>
	<outline>
		<component base="cap" yOffset="500"/>
		<component base="cap" yOffset="1000"/>
		<contour>
			<point x="0" y="500" type="line"/>
			<point x="0" y="1000" type="line"/>
			<point x="404" y="1000" type="line"/>
			<point x="404" y="500" type="line"/>
		</contour>
	</outline>
</glyph>
<glyph name="_60" format="2">
	<unicode hex="013C"/>
	<unicode hex="0036"/>
	<unicode hex="0045"/>
	<advance width="250"/>
	<outline>
		<component base="cap" yOffset="400"/>
		<component base="cap" yOffset="1000"/>
		<contour>
			<point x="0" y="400" type="line"/>
			<point x="0" y="1000" type="line"/>
			<point x="250" y="1000" type="line"/>
			<point x="250" y="400" type="line"/>
		</contour>
	</outline>
</glyph>
<glyph name="_81" format="2">
	<unicode hex="0151"/>
	<advance width="200"/>
	<outline>
		<component base="cap" yOffset="190"/>
		<component base="cap" yOffset="1000"/>
		<contour>
			<point x="0" y="190" type="line"/>
			<point x="0" y="1000" type="line"/>
			<point x="200" y="1000" type="line"/>
			<point x="200" y="190" type="line"/>
		</contour>
	</outline>
</glyph>
<glyph name="_86" format="2">
	<unicode hex="0156"/>
	<unicode hex="2587"/>
	<unicode hex="0052"/>
	<advance width="250"/>
	<outline>
		<component base="cap" yOffset="140"/>
		<component base="cap" yOffset="1000"/>
		<contour>
			<point x="0" y="140" type="line"/>
			<point x="0" y="1000" type="line"/>
			<point x="250" y="1000" type="line"/>
			<point x="250" y="140" type="line"/>
		</contour>
	</outline>
</glyph>
<glyph name="_92" format="2">
	<unicode hex="015C"/>
	<unicode hex="0055"/>
	<advance width="404"/>
	<outline>
		<component base="cap" yOffset="80"/>
		<component base="cap" yOffset="1000"/>
		<contour>
			<point x="0" y="80" type="line"/>
			<point x="0" y="1000" type="line"/>
			<point x="404" y="1000" type="line"/>
			<point x="404" y="80" type="line"/>
		</contour>
	</outline>
</glyph>
<glyph name="_94" format="2">
	<unicode hex="015E"/>
	<unicode hex="0056"/>
	<advance width="404"/>
	<outline>
		<component base="cap" yOffset="60"/>
		<component base="cap" yOffset="1000"/>
		<contour>
			<point x="0" y="60" type="line"/>
			<point x="0" y="1000" type="line"/>
			<point x="404" y="1000" type="line"/>
			<point x="404" y="60" type="line"/>
		</contour>
	</outline>
</glyph>
<glyph name="_95" format="2">
	<unicode hex="015F"/>
	<advance width="200"/>
	<outline>
		<component base="cap" yOffset="50"/>
		<component base="cap" yOffset="1000"/>
		<contour>
			<point x="0" y="50" type="line"/>
			<point x="0" y="1000" type="line"/>
			<point x="200" y="1000" type="line"/>
			<point x="200" y="50" type="line"/>
		</contour>
	</outline>
</glyph>
<glyph name="_103" format="2">
	<unicode hex="0167"/>
	<advance width="404"/>
	<outline>
		<component base="cap" yOffset="-30"/>
		<component base="cap" yOffset="1000"/>
		<contour>
			<point x="0" y="-30" type="line"/>
			<point x="0" y="1000" type="line"/>
			<point x="404" y="1000" type="line"/>
			<point x="404" y="-30" type="line"/>
		</contour>
	</outline>
</glyph>
<glyph name="_105" format="2">
	<unicode hex="0169"/>
	<advance width="404"/>
	<outline>
		<component base="cap" yOffset="-50"/>
		<component base="cap" yOffset="1000"/>
		<contour>
			<point x="0" y="-50" type="line"/>
			<point x="0" y="1000" type="line"/>
			<point x="404" y="1000" type="line"/>
			<point x="404" y="-50" type="line"/>
		</contour>
	</outline>
</glyph>
<glyph name="_114" format="2">
	<unicode hex="0172"/>
	<advance width="404"/>
	<outline>
		<component base="cap" yOffset="-140"/>
		<component base="cap" yOffset="1000"/>
		<contour>
			<point x="0" y="-140" type="line"/>
			<point x="0" y="1000" type="line"/>
			<point x="404" y="1000" type="line"/>
			<point x="404" y="-140" type="line"/>
		</contour>
	</outline>
</glyph>
<glyph name="_121" format="2">
	<unicode hex="0179"/>
	<advance width="250"/>
	<outline>
		<component base="cap" yOffset="-210"/>
		<component base="cap" yOffset="1000"/>
		<contour>
			<point x="0" y="-210" type="line"/>
			<point x="0" y="1000" type="line"/>
			<point x="250" y="1000" type="line"/>
			<point x="250" y="-210" type="line"/>
		</contour>
	</outline>
</glyph>
<glyph name="_13.clip" format="2">
	<advance width="404"/>
	<outline>
		<contour>
			<point x="0" y="1000"/>
			<point x="0" y="1000"/>
			<point x="0" y="1000" type="curve" smooth="yes"/>
			<point x="404" y="1000" type="line"/>
			<point x="404" y="1000"/>
			<point x="404" y="1000"/>
			<point x="404" y="1000" type="curve" smooth="yes"/>
			<point x="404" y="870" type="line"/>
			<point x="404" y="870"/>
			<point x="404" y="870"/>
			<point x="404" y="870" type="curve" smooth="yes"/>
			<point x="0" y="870" type="line"/>
			<point x="0" y="870"/>
			<point x="0" y="870"/>
			<point x="0" y="870" type="curve" smooth="yes"/>
			<point x="0" y="1000" type="line"/>
		</contour>
	</outline>
</glyph>
<glyph name="_20.clip" format="2">
	<advance width="205"/>
	<outline>
		<contour>
			<point x="0" y="1000"/>
			<point x="0" y="1000"/>
			<point x="0" y="1000" type="curve" smooth="yes"/>
			<point x="205" y="1000" type="line"/>
			<point x="205" y="1000"/>
			<point x="205" y="1000"/>
			<point x="205" y="1000" type="curve" smooth="yes"/>
			<point x="205" y="800" type="line"/>
			<point x="205" y="800"/>
			<point x="205" y="800"/>
			<point x="205" y="800" type="curve" smooth="yes"/>
			<point x="0" y="800" type="line"/>
			<point x="0" y="800"/>
			<point x="0" y="800"/>
			<point x="0" y="800" type="curve" smooth="yes"/>
			<point x="0" y="1000" type="line"/>
		</contour>
	</outline>
</glyph>
<glyph name="_28.clip" format="2">
	<advance width="404"/>
	<outline>
		<contour>
			<point x="0" y="1000"/>
			<point x="0" y="1000"/>
			<point x="0" y="1000" type="curve" smooth="yes"/>
			<point x="404" y="1000" type="line"/>
			<point x="404" y="1000"/>
			<point x="404" y="1000"/>
			<point x="404" y="1000" type="curve" smooth="yes"/>
			<point x="404" y="720" type="line"/>
			<point x="404" y="720"/>
			<point x="404" y="720"/>
			<point x="404" y="720" type="curve" smooth="yes"/>
			<point x="0" y="720" type="line"/>
			<point x="0" y="720"/>
			<point x="0" y="720"/>
			<point x="0" y="720" type="curve" smooth="yes"/>
			<point x="0" y="1000" type="line"/>
		</contour>
	</outline>
</glyph>
<glyph name="_36.clip" format="2">
	<advance width="404"/>
	<outline>
		<contour>
			<point x="0" y="1000"/>
			<point x="0" y="1000"/>
			<point x="0" y="1000" type="curve" smooth="yes"/>
			<point x="404" y="1000" type="line"/>
			<point x="404" y="1000"/>
			<point x="404" y="1000"/>
			<point x="404" y="1000" type="curve" smooth="yes"/>
			<point x="404" y="640" type="line"/>
			<point x="404" y="640"/>
			<point x="404" y="640"/>
			<point x="404" y="640" type="curve" smooth="yes"/>
			<point x="0" y="640" type="line"/>
			<point x="0" y="640"/>
			<point x="0" y="640"/>
			<point x="0" y="640" type="curve" smooth="yes"/>
			<point x="0" y="1000" type="line"/>
		</contour>
	</outline>
</glyph>
<glyph name="_8.clip" format="2">
	<advance width="200"/>
	<outline>
		<contour>
			<point x="0" y="1000"/>
			<point x="0" y="1000"/>
			<point x="0" y="1000" type="curve" smooth="yes"/>
			<point x="200" y="1000" type="line"/>
			<point x="200" y="1000"/>
			<point x="200" y="1000"/>
			<point x="200" y="1000" type="curve" smooth="yes"/>
			<point x="200" y="920" type="line"/>
			<point x="200" y="920"/>
			<point x="200" y="920"/>
			<point x="200" y="920" type="curve" smooth="yes"/>
			<point x="0" y="920" type="line"/>
			<point x="0" y="920"/>
			<point x="0" y="920"/>
			<point x="0" y="920" type="curve" smooth="yes"/>
			<point x="0" y="1000" type="line"/>
		</contour>
	</outline>
</glyph>
